<svg width="53" height="28" viewBox="0 0 53 28" fill="none" xmlns="http://www.w3.org/2000/svg">
<rect x="0.5" y="0.5" width="15" height="27" fill="white"/>
<rect x="0.5" y="0.5" width="15" height="27" stroke="black"/>
<path d="M4.965 9.00098L7.17 4.10098H8.066L10.278 9.00098H9.326L7.429 4.58398H7.793L5.903 9.00098H4.965ZM5.98 7.86698L6.225 7.15298H8.871L9.116 7.86698H5.98Z" fill="black"/>
<path d="M8.00001 16.999V11.001M8.00001 11.001L6.07144 13.205M8.00001 11.001L9.92858 13.205" stroke="black" stroke-width="0.8" stroke-linecap="round" stroke-linejoin="round"/>
<path d="M7.947 24.069C7.56433 24.069 7.212 24.0084 6.89 23.887C6.57267 23.761 6.295 23.586 6.057 23.362C5.819 23.1334 5.63467 22.865 5.504 22.557C5.37333 22.249 5.308 21.913 5.308 21.549C5.308 21.185 5.37333 20.849 5.504 20.541C5.63467 20.233 5.819 19.967 6.057 19.743C6.29967 19.5144 6.582 19.3394 6.904 19.218C7.226 19.092 7.57833 19.029 7.961 19.029C8.37633 19.029 8.74967 19.0967 9.081 19.232C9.417 19.3674 9.69933 19.5657 9.928 19.827L9.354 20.387C9.16267 20.1957 8.955 20.0557 8.731 19.967C8.51167 19.8737 8.269 19.827 8.003 19.827C7.74633 19.827 7.50833 19.869 7.289 19.953C7.06967 20.037 6.88067 20.156 6.722 20.31C6.56333 20.464 6.43967 20.646 6.351 20.856C6.267 21.066 6.225 21.297 6.225 21.549C6.225 21.7964 6.267 22.025 6.351 22.235C6.43967 22.445 6.56333 22.6294 6.722 22.788C6.88067 22.942 7.06733 23.061 7.282 23.145C7.49667 23.229 7.73467 23.271 7.996 23.271C8.23867 23.271 8.472 23.2337 8.696 23.159C8.92467 23.0797 9.14167 22.949 9.347 22.767L9.865 23.446C9.60833 23.6514 9.30967 23.8077 8.969 23.915C8.633 24.0177 8.29233 24.069 7.947 24.069ZM9.004 23.327V21.493H9.865V23.446L9.004 23.327Z" fill="black"/>
<rect width="22" height="28" transform="translate(16)" fill="#009949"/>
<path d="M20.925 19L25.65 8.5H27.57L32.31 19H30.27L26.205 9.535H26.985L22.935 19H20.925ZM23.1 16.57L23.625 15.04H29.295L29.82 16.57H23.1Z" fill="white"/>
<path d="M53 14L38 0L38 28L53 14Z" fill="#009949"/>
</svg>
