
 <svg xmlns="http://www.w3.org/2000/svg" width="0" height="0">
     <defs> 
       <symbol id="icon-cart" viewBox="0 0 30 30">
          <path d="M5.12078 4.04813C4.68237 3.89313 4.20201 4.12487 4.04786 4.56572C3.89372 5.00658 4.12418 5.48962 4.5626 5.64462L4.85566 5.74822C5.60467 6.01303 6.09693 6.18852 6.45914 6.36723C6.79935 6.53508 6.94931 6.67095 7.04811 6.81633C7.14938 6.96535 7.22758 7.17003 7.2717 7.57995C7.31787 8.0089 7.31902 8.56759 7.31902 9.40239V12.4729C7.31902 14.1116 7.33431 15.2933 7.48808 16.1961C7.65224 17.1599 7.98 17.8499 8.59285 18.4999C9.25912 19.2065 10.1037 19.5142 11.1092 19.6576C12.0721 19.7949 13.2949 19.7949 14.8047 19.7949H20.8696C21.7018 19.7949 22.4018 19.7949 22.9684 19.7251C23.5695 19.6512 24.1176 19.4895 24.5961 19.0974C25.0746 18.7053 25.3428 18.198 25.5362 17.6211C25.7184 17.0771 25.8598 16.3876 26.0277 15.5681L26.5987 12.7822L26.5998 12.777L26.6115 12.718C26.7963 11.7874 26.9517 11.0046 26.9904 10.3749C27.0309 9.71357 26.956 9.06147 26.5277 8.50145C26.264 8.15687 25.8934 7.9618 25.5563 7.84269C25.2124 7.72119 24.8236 7.65091 24.4312 7.60679C23.6603 7.52015 22.724 7.52016 21.8055 7.52017H8.95684C8.95315 7.47871 8.94915 7.43793 8.94484 7.39784C8.88456 6.83783 8.75394 6.32708 8.43758 5.86154C8.11875 5.39238 7.69482 5.0919 7.20046 4.84798C6.73812 4.61986 6.15064 4.41219 5.45893 4.16767L5.12078 4.04813ZM9.00193 9.21245H21.7704C22.7313 9.21245 23.5769 9.21358 24.2442 9.28859C24.5758 9.32587 24.824 9.37765 24.9984 9.43927C25.1408 9.48964 25.1891 9.53076 25.196 9.5367C25.2649 9.62855 25.3398 9.79518 25.3106 10.2707C25.2799 10.7711 25.1491 11.4393 24.9499 12.4433L24.9494 12.4458L24.3898 15.1762C24.2087 16.0593 24.0869 16.6464 23.9414 17.0806C23.8033 17.4928 23.6736 17.6704 23.533 17.7856C23.3925 17.9006 23.1934 17.9926 22.764 18.0454C22.3116 18.1011 21.7153 18.1026 20.8186 18.1026H14.869C13.2795 18.1026 12.1765 18.1005 11.3455 17.9821C10.5436 17.8677 10.1199 17.6599 9.81411 17.3355C9.4549 16.9546 9.26115 16.5816 9.14684 15.9104C9.02212 15.1781 9.00193 14.1528 9.00193 12.4729V9.21245Z" fill="currentColor"/>
          <path d="M11.0124 25.9999C9.61819 25.9999 8.48799 24.8634 8.48799 23.4615C8.48799 22.0595 9.61819 20.923 11.0124 20.923C12.4065 20.923 13.5367 22.0595 13.5367 23.4615C13.5367 24.8634 12.4065 25.9999 11.0124 25.9999ZM10.1709 23.4615C10.1709 23.9288 10.5476 24.3076 11.0124 24.3076C11.4771 24.3076 11.8538 23.9288 11.8538 23.4615C11.8538 22.9942 11.4771 22.6153 11.0124 22.6153C10.5476 22.6153 10.1709 22.9942 10.1709 23.4615Z" fill="currentColor"/>
          <path  d="M21.1098 26C19.7157 26 18.5855 24.8635 18.5855 23.4616C18.5855 22.0596 19.7157 20.9232 21.1098 20.9232C22.5039 20.9232 23.6342 22.0596 23.6342 23.4616C23.6342 24.8635 22.5039 26 21.1098 26ZM20.2684 23.4616C20.2684 23.9289 20.6451 24.3077 21.1098 24.3077C21.5745 24.3077 21.9513 23.9289 21.9513 23.4616C21.9513 22.9943 21.5745 22.6154 21.1098 22.6154C20.6451 22.6154 20.2684 22.9943 20.2684 23.4616Z" fill="currentColor"/>
       </symbol>       
       <symbol id="icon-user" viewBox="0 0 30 30"  fill="none"> 
         <path d="M5 26C5.63376 23.8365 6.94218 21.9268 8.73822 20.5439C10.5343 19.161 12.7259 18.3756 15 18.3C19.5778 18.3 23.4778 21.501 25 26M15.2213 15C18.2896 15 20.7769 12.5376 20.7769 9.5C20.7769 6.46244 18.2896 4 15.2213 4C12.1531 4 9.6658 6.46244 9.6658 9.5C9.6658 12.5376 12.1531 15 15.2213 15Z" stroke="currentColor" stroke-width="1.5" />
       </symbol>       
       <symbol id="icon-search" viewBox="0 0 24 24" fill="none">
           <path d="M11 19C15.4183 19 19 15.4183 19 11C19 6.58172 15.4183 3 11 3C6.58172 3 3 6.58172 3 11C3 15.4183 6.58172 19 11 19Z" stroke="currentColor" stroke-width="2"/>
         <path d="M20.9999 21L16.6499 16.65" stroke="currentColor" stroke-width="2" />
       </symbol>        
       <symbol id="icon-call" viewBox="0 0 20 20"  fill="none">
         <path d="M18.3334 14.1V16.6C18.3344 16.8321 18.2868 17.0618 18.1939 17.2745C18.1009 17.4871 17.9645 17.678 17.7935 17.8349C17.6225 17.9918 17.4206 18.1112 17.2007 18.1856C16.9809 18.2599 16.7479 18.2876 16.5168 18.2667C13.9525 17.988 11.4893 17.1118 9.32511 15.7083C7.31163 14.4289 5.60455 12.7218 4.32511 10.7083C2.91676 8.53433 2.04031 6.05916 1.76677 3.48333C1.74595 3.25288 1.77334 3.02063 1.84719 2.80135C1.92105 2.58207 2.03975 2.38057 2.19575 2.20968C2.35174 2.03879 2.54161 1.90225 2.75327 1.80876C2.96492 1.71527 3.19372 1.66688 3.42511 1.66666H5.92511C6.32953 1.66268 6.7216 1.80589 7.02824 2.0696C7.33488 2.33332 7.53517 2.69953 7.59177 3.09999C7.69729 3.90005 7.89298 4.6856 8.17511 5.44166C8.28723 5.73993 8.31149 6.06409 8.24503 6.37573C8.17857 6.68737 8.02416 6.97342 7.80011 7.19999L6.74177 8.25833C7.92807 10.3446 9.65549 12.072 11.7418 13.2583L12.8001 12.2C13.0267 11.9759 13.3127 11.8215 13.6244 11.7551C13.936 11.6886 14.2602 11.7129 14.5584 11.825C15.3145 12.1071 16.1001 12.3028 16.9001 12.4083C17.3049 12.4654 17.6746 12.6693 17.9389 12.9812C18.2032 13.2931 18.3436 13.6913 18.3334 14.1Z" stroke="currentColor" stroke-width="1.2"/>
       </symbol>        
       <symbol id="menu-icon-1" viewBox="0 0 41 40">
         <path d="M15.3429 36.7812C15.1828 36.7812 15.0867 36.75 14.9586 36.6875C14.382 36.3125 11.6594 34.3438 13.9336 30.4375C14.5422 29.375 14.7023 28.5312 14.4781 27.8438C14.2219 27.0625 13.389 26.75 13.389 26.75C13.0047 26.5938 12.8125 26.1562 12.9726 25.7812C13.1008 25.4688 13.357 25.2812 13.6773 25.2812C13.7734 25.2812 13.8695 25.3125 13.9656 25.3438C14.0937 25.3438 15.439 25.9062 15.9836 27.3125C16.4 28.4375 16.1758 29.75 15.3109 31.2188C13.7094 33.9688 15.407 35.1875 15.7594 35.4062C16.1117 35.5938 16.2398 36.0625 16.0476 36.4375C15.8554 36.6875 15.5672 36.7812 15.3429 36.7812ZM20.532 35.125C20.3719 35.125 20.2758 35.0938 20.1476 35.0312C18.9945 34.375 17.3609 32.3438 19.1867 29.1562C19.7312 28.1875 19.8914 27.4062 19.6672 26.8125C19.4429 26.125 18.7062 25.8437 18.7062 25.8437C18.2898 25.6875 18.0976 25.2812 18.2578 24.875C18.3859 24.5625 18.6422 24.375 18.9625 24.375C19.0586 24.375 19.1547 24.4062 19.2508 24.4375C19.5711 24.5625 20.6922 25.0625 21.1406 26.3125C21.525 27.375 21.3328 28.5938 20.532 29.9375C18.9945 32.625 20.8523 33.7188 20.9484 33.75C21.1086 33.8438 21.2367 34 21.3008 34.1875C21.3648 34.375 21.3328 34.5938 21.2367 34.7812C21.0445 35.0312 20.7562 35.125 20.532 35.125ZM9.89763 35.125C9.73748 35.125 9.64138 35.0938 9.51326 35.0312C8.36013 34.375 6.72654 32.3438 8.55232 29.1562C9.09685 28.1875 9.25701 27.4062 9.03279 26.8125C8.80857 26.125 8.07185 25.8437 8.07185 25.8437C7.65544 25.6875 7.46326 25.2812 7.62341 24.875C7.75154 24.5625 8.00779 24.375 8.3281 24.375C8.42419 24.375 8.52029 24.4062 8.61638 24.4375C8.93669 24.5625 10.0578 25.0937 10.5062 26.3125C10.8906 27.375 10.6664 28.5938 9.89763 29.9688C8.36013 32.6562 10.2179 33.75 10.314 33.7812C10.4742 33.875 10.6023 34.0312 10.6664 34.2188C10.7304 34.4062 10.6984 34.625 10.6023 34.8125C10.4422 35.0312 10.1219 35.125 9.89763 35.125ZM29.4047 32.3438C29.1484 32.3438 28.9562 32.25 28.7961 32.0937C28.6359 31.9375 28.5398 31.7188 28.5398 31.5C28.5398 31.1562 28.764 30.8437 29.0844 30.6875H29.1164V29L27.4828 29.9062V29.9375C27.4828 30.1875 27.3867 30.5 27.0664 30.6562C26.9383 30.75 26.7781 30.7812 26.6179 30.7812C26.2976 30.7812 26.0093 30.625 25.8812 30.375C25.7531 30.1562 25.7211 29.9375 25.7851 29.7188C25.8492 29.5 25.9773 29.3125 26.2015 29.2188C26.3297 29.125 26.4898 29.0938 26.6179 29.0938C26.7781 29.0938 26.9383 29.125 27.0664 29.2188L28.5398 28.4062L27.0984 27.5938C26.9062 27.6562 26.7461 27.6875 26.6179 27.6875C26.4578 27.6875 26.3297 27.6562 26.2015 27.5938C25.8172 27.3438 25.657 26.8125 25.8812 26.4375C26.0414 26.1875 26.3297 26.0312 26.65 26.0312C26.8101 26.0312 26.9703 26.0625 27.0984 26.1562C27.3547 26.3125 27.5148 26.5625 27.5148 26.875V26.9062L29.1484 27.8125V26.125H29.1164C28.7961 25.9688 28.5718 25.6562 28.5718 25.3125C28.5718 24.8438 28.9562 24.4688 29.4367 24.4688C29.6929 24.4688 29.9172 24.5625 30.0773 24.7188C30.2375 24.875 30.3336 25.0938 30.3336 25.3125C30.3336 25.5938 30.1734 25.875 29.8851 26.0312H29.789V27.6562L31.1984 26.875V26.8438C31.1984 26.5938 31.2945 26.2812 31.6148 26.125C31.7429 26.0312 31.9031 26 32.0633 26C32.3836 26 32.6719 26.1562 32.8 26.4062C32.9281 26.625 32.9601 26.8438 32.8961 27.0625C32.832 27.2812 32.7039 27.4687 32.4797 27.5625C32.3515 27.6562 32.1914 27.6875 32.0633 27.6875C31.9031 27.6875 31.7429 27.6562 31.6148 27.5625L30.1414 28.375L31.5828 29.1875C31.775 29.125 31.9351 29.0938 32.0633 29.0938C32.2234 29.0938 32.3515 29.125 32.4797 29.1875C32.864 29.4375 33.0242 29.9687 32.8 30.3438C32.6398 30.5938 32.3515 30.75 32.0312 30.75C31.8711 30.75 31.7109 30.7188 31.5828 30.625C31.3265 30.4688 31.1664 30.2187 31.1664 29.9062V29.875L29.789 29.125V30.75H29.8211C30.1093 30.875 30.2695 31.1562 30.2695 31.4687C30.2695 31.9687 29.8851 32.3438 29.4047 32.3438ZM6.08591 22.4688C3.65154 22.4688 1.69763 20.5625 1.69763 18.1875V8C1.69763 5.625 3.65154 3.71875 6.08591 3.71875H34.9781C37.4125 3.71875 39.3664 5.625 39.3664 8V18.1875C39.3664 20.5625 37.4125 22.4688 34.9781 22.4688H6.08591ZM5.63748 5.59375C4.48435 5.59375 3.55544 6.53125 3.55544 7.71875V18.5938C3.55544 19.75 4.48435 20.7188 5.63748 20.7188H35.3945C36.5476 20.7188 37.4765 19.7812 37.4765 18.5938V7.71875C37.4765 6.5625 36.5476 5.59375 35.3945 5.59375H5.63748ZM6.50232 17.7812C6.08591 17.7812 5.73357 17.4375 5.73357 17.0312C5.73357 16.625 6.08591 16.2812 6.50232 16.2812H33.825C34.2414 16.2812 34.5937 16.625 34.5937 17.0312C34.5937 17.4375 34.2414 17.7812 33.825 17.7812H6.50232ZM6.50232 14.625C6.08591 14.625 5.73357 14.2812 5.73357 13.875C5.73357 13.4688 6.08591 13.125 6.50232 13.125H33.825C34.2414 13.125 34.5937 13.4688 34.5937 13.875C34.5937 14.2812 34.2414 14.625 33.825 14.625H6.50232Z"/>
       </symbol>  
       <symbol id="menu-icon-2" viewBox="0 0 41 40">
         <path d="M32.4083 13.6198C32.0379 13.6198 31.7376 13.3268 31.7376 12.9655C31.7376 12.6042 32.0379 12.3112 32.4083 12.3112H36.252C36.6224 12.3112 36.9227 12.6042 36.9227 12.9655C36.9227 13.3268 36.6224 13.6198 36.252 13.6198H32.4083ZM1.99528 5.12695H39.0047C39.5553 5.12695 40.0524 5.34505 40.4128 5.69661C40.7731 6.04818 40.9967 6.53646 40.9967 7.07031V32.9264C40.9967 33.4635 40.7731 33.9486 40.4128 34.3001C40.0524 34.6517 39.5519 34.8698 39.0047 34.8698H1.99528C1.44474 34.8698 0.947591 34.6517 0.58724 34.3001C0.223551 33.9518 0 33.4635 0 32.9297V7.07357C0 6.53646 0.223551 6.05143 0.583903 5.69987C0.947591 5.34505 1.44474 5.12695 1.99528 5.12695ZM39.0047 6.4388H1.99528C1.81844 6.4388 1.65495 6.51042 1.53817 6.62435C1.41805 6.73828 1.34465 6.89779 1.34465 7.07357V32.9297C1.34465 33.1022 1.41805 33.2617 1.53483 33.3756C1.65161 33.4896 1.8151 33.5612 1.99194 33.5612H39.0047C39.1816 33.5612 39.3451 33.4896 39.4618 33.3756C39.5786 33.2617 39.652 33.1022 39.652 32.9297V7.07357C39.652 6.90104 39.5786 6.74154 39.4618 6.6276C39.3451 6.51042 39.1849 6.4388 39.0047 6.4388ZM15.2415 7.8776C18.6649 7.8776 21.7646 9.23177 24.0101 11.4225C26.2556 13.6133 27.6436 16.6374 27.6436 19.9772C27.6436 22.7539 26.686 25.3092 25.0745 27.3535V27.3861C25.0745 27.6302 24.8876 27.832 24.644 27.8678C24.4405 28.099 24.2303 28.3203 24.0101 28.5319C21.7646 30.7227 18.6649 32.0768 15.2415 32.0768C11.8182 32.0768 8.71851 30.7227 6.47298 28.5319C4.22746 26.3411 2.83944 23.3171 2.83944 19.9772C2.83944 16.6374 4.22746 13.6133 6.47298 11.4225C8.71851 9.23177 11.8182 7.8776 15.2415 7.8776ZM23.2961 12.1159C22.9023 11.7318 22.4786 11.3737 22.0315 11.0482V28.8997C22.4786 28.5742 22.9023 28.2194 23.2961 27.832C23.5663 27.5684 23.8199 27.2917 24.0635 27.0052V13.0013C24.0635 12.9818 24.0635 12.9622 24.0668 12.946C23.8266 12.6595 23.5697 12.3796 23.2961 12.1159ZM21.0339 10.4004C20.3899 10.0293 19.7092 9.72005 18.9919 9.47591V30.472C19.7059 30.2311 20.3832 29.9219 21.0238 29.5508V10.4883C21.0238 10.459 21.0272 10.4297 21.0339 10.4004ZM17.9842 9.1862C17.3269 9.02669 16.6496 8.92578 15.9522 8.88346V31.071C16.6496 31.0286 17.3269 30.9277 17.9842 30.7682V9.1862ZM14.9446 8.86393C14.2506 8.88021 13.5699 8.95833 12.9126 9.0918V30.8561C13.5699 30.9896 14.2506 31.0677 14.9446 31.084V8.86393ZM11.9049 9.3457C11.1943 9.55729 10.5169 9.83398 9.87296 10.1725V29.7819C10.5169 30.1172 11.1976 30.3939 11.9049 30.6087V9.3457ZM8.86198 10.765C8.25806 11.1621 7.69751 11.6146 7.18368 12.1159C7.06356 12.2331 6.94344 12.3535 6.83 12.4772V12.487V27.4707C6.94678 27.5944 7.06356 27.7148 7.18368 27.832C7.69751 28.3333 8.25806 28.7858 8.86198 29.1829V10.765ZM5.82235 13.7207C4.5778 15.5013 3.84709 17.6562 3.84709 19.9772C3.84709 22.2982 4.57446 24.4499 5.82235 26.2337V13.7207ZM25.0711 25.5957C26.0654 23.9453 26.6326 22.0247 26.6326 19.974C26.6326 17.9232 26.0621 16.0026 25.0711 14.3522V25.5957ZM28.0907 10.498C27.7204 10.498 27.4201 10.2051 27.4201 9.84375C27.4201 9.48242 27.7204 9.18945 28.0907 9.18945H36.2487C36.6191 9.18945 36.9194 9.48242 36.9194 9.84375C36.9194 10.2051 36.6191 10.498 36.2487 10.498H28.0907Z"/>
       </symbol>      
       <symbol id="menu-icon-3" viewBox="0 0 40 40">
         <path d="M37.9717 8.03857H35.6846C34.5662 8.03857 33.6563 8.94841 33.6563 10.0669V10.8398H6.3843V10.0669C6.3843 8.94841 5.47438 8.03857 4.35594 8.03857H2.02828C0.909844 8.03857 0 8.94841 0 10.0669V29.9332C0 31.0516 0.909844 31.9615 2.02828 31.9615H4.35594C5.47438 31.9615 6.3843 31.0516 6.3843 29.9332V29.1602H33.6563V29.9332C33.6563 31.0516 34.5662 31.9615 35.6846 31.9615H37.9717C39.0902 31.9615 40 31.0516 40 29.9332V10.0669C40 8.94841 39.0902 8.03857 37.9717 8.03857ZM4.7907 29.9331C4.7907 30.1728 4.5957 30.3678 4.35594 30.3678H2.02828C1.78859 30.3678 1.59359 30.1728 1.59359 29.9331V10.0669C1.59359 9.82716 1.78859 9.63216 2.02828 9.63216H4.35594C4.5957 9.63216 4.7907 9.82716 4.7907 10.0669V29.9331ZM33.6563 27.5666H6.3843V12.4334H33.6563V27.5666ZM38.4064 29.9331C38.4064 30.1728 38.2114 30.3678 37.9717 30.3678H35.6846C35.4449 30.3678 35.2499 30.1728 35.2499 29.9331V10.0669C35.2499 9.82716 35.4449 9.63216 35.6846 9.63216H37.9717C38.2114 9.63216 38.4064 9.82716 38.4064 10.0669V29.9331Z"/>
         <path d="M21.6646 24.9682H21.2587C20.8187 24.9682 20.4619 25.325 20.4619 25.765C20.4619 26.205 20.8187 26.5618 21.2587 26.5618H21.6646C22.1046 26.5618 22.4614 26.205 22.4614 25.765C22.4614 25.325 22.1046 24.9682 21.6646 24.9682Z" />
         <path d="M18.1732 24.9682H8.51066C8.07066 24.9682 7.71387 25.325 7.71387 25.765C7.71387 26.205 8.07066 26.5618 8.51066 26.5618H18.1732C18.6132 26.5618 18.97 26.205 18.97 25.765C18.97 25.325 18.6132 24.9682 18.1732 24.9682Z"/>   
       </symbol>      
       <symbol id="menu-icon-4" viewBox="0 0 41 40">
         <path d="M12.508 1.12318C10.6946 1.51649 9.15687 3.01374 8.64024 4.8893L8.50391 5.38438V19.8176V34.2509L8.6375 34.6317C8.90354 35.3902 9.6348 36.1372 10.3654 36.3966L10.7349 36.5278L10.7653 37.6363L10.7958 38.7446L10.9615 39.0609C11.5887 40.2585 13.3092 40.3154 13.9687 39.1603L14.1401 38.86H14.7875H15.4349L15.6064 39.1603C16.2596 40.3044 17.8889 40.2734 18.5744 39.1038L18.785 38.7446L18.8131 37.6593L18.8412 36.5739H20.4999H22.1586L22.1898 37.6593L22.2211 38.7446L22.3865 39.0609C23.0126 40.2585 24.7339 40.3153 25.3934 39.1603L25.5648 38.86H26.2123H26.8597L27.0311 39.1603C27.6844 40.3044 29.3129 40.2734 29.9995 39.1038L30.2103 38.7446L30.2376 37.6363L30.2648 36.5278L30.6344 36.3966C31.3657 36.1369 32.058 35.4311 32.3478 34.6499L32.4959 34.2509V19.8176V5.38438L32.3564 4.8893C31.8203 2.98609 30.2853 1.50118 28.4591 1.11906C27.6883 0.957822 13.2536 0.961478 12.508 1.12318ZM28.6632 2.38348C29.9887 2.89949 30.8591 3.85536 31.2019 5.17134L31.3153 5.60678V19.8568V34.1067L31.1224 34.4939C30.9163 34.9074 30.5292 35.2312 30.0906 35.357C29.7377 35.4583 11.2621 35.4583 10.9092 35.357C10.4706 35.2312 10.0835 34.9074 9.87739 34.4939L9.68446 34.1067V19.8165V5.52627L9.80724 5.11262C10.2565 3.59816 11.4037 2.53413 12.9215 2.22414C13.089 2.18987 16.585 2.16717 20.6903 2.17364L28.1545 2.18545L28.6632 2.38348ZM12.829 3.39959C11.1051 3.94242 10.7508 4.79608 10.7508 8.40706C10.7508 11.2279 10.8106 11.4415 11.5491 11.2562C11.9446 11.157 11.9694 10.98 11.9694 8.2593V5.75705L12.1623 5.36983C12.3684 4.95633 12.7555 4.63255 13.1941 4.50673C13.5455 4.40596 27.4543 4.40596 27.8056 4.50673C28.2443 4.63255 28.6313 4.95633 28.8374 5.36983L29.0304 5.75705V11.8584V17.9597L28.8374 18.347C28.6313 18.7605 28.2443 19.0842 27.8056 19.2101C27.4543 19.3108 13.5455 19.3108 13.1941 19.2101C12.7555 19.0842 12.3684 18.7605 12.1623 18.347L11.9694 17.9597V15.4575C11.9694 12.7368 11.9446 12.5598 11.5491 12.4606C10.8106 12.2752 10.7508 12.4889 10.7508 15.3097C10.7508 18.7592 10.9836 19.4364 12.4107 20.139L12.9183 20.3889H20.4999H28.0815L28.5891 20.139C29.4179 19.731 30.0017 18.9685 30.1717 18.0719C30.2763 17.52 30.2763 6.19683 30.1717 5.64494C30.0017 4.7484 29.4179 3.98584 28.5891 3.57782L28.0816 3.32792L20.6158 3.31322C14.5927 3.30134 13.088 3.31802 12.829 3.39959ZM13.3578 5.62574C12.8707 5.82171 12.892 8.76694 13.3819 8.95491C13.543 9.01676 27.4568 9.01676 27.6179 8.95491C28.1259 8.75993 28.1259 5.81707 27.6179 5.62209C27.471 5.56572 13.498 5.56938 13.3578 5.62574ZM26.7454 7.2885V7.85974H20.4999H14.2544V7.2885V6.71726H20.4999H26.7454V7.2885ZM13.3578 10.1956C12.8707 10.3916 12.892 13.3368 13.3819 13.5248C13.543 13.5867 27.4568 13.5867 27.6179 13.5248C28.1259 13.3298 28.1259 10.387 27.6179 10.192C27.471 10.1356 13.498 10.1393 13.3578 10.1956ZM26.7454 11.8584V12.4296H20.4999H14.2544V11.8584V11.2872H20.4999H26.7454V11.8584ZM13.3578 14.7655C12.8707 14.9615 12.892 17.9067 13.3819 18.0947C13.543 18.1565 27.4568 18.1565 27.6179 18.0947C28.1259 17.8997 28.1259 14.9569 27.6179 14.7619C27.471 14.7055 13.498 14.7092 13.3578 14.7655ZM26.7454 16.4283V16.9995H20.4999H14.2544V16.4283V15.8571H20.4999H26.7454V16.4283ZM13.0357 37.5585V38.5432L12.835 38.701C12.7247 38.7878 12.5751 38.8589 12.5026 38.8589C12.4301 38.8589 12.2805 38.7878 12.1701 38.701L11.9694 38.5432V37.5585V36.5739H12.5026H13.0357V37.5585ZM15.3207 37.1452V37.7164H14.7875H14.2544V37.1452V36.5739H14.7875H15.3207V37.1452ZM17.6056 37.5585V38.5432L17.4049 38.701C17.2946 38.7878 17.145 38.8589 17.0725 38.8589C17 38.8589 16.8504 38.7878 16.74 38.701L16.5393 38.5432V37.5585V36.5739H17.0725H17.6056V37.5585ZM24.4605 37.5585V38.5432L24.2598 38.701C24.1494 38.7878 23.9998 38.8589 23.9273 38.8589C23.8548 38.8589 23.7052 38.7878 23.5948 38.701L23.3942 38.5432V37.5585V36.5739H23.9273H24.4605V37.5585ZM26.7454 37.1452V37.7164H26.2123H25.6791V37.1452V36.5739H26.2123H26.7454V37.1452ZM29.0304 37.5585V38.5432L28.8297 38.701C28.7193 38.7878 28.5697 38.8589 28.4972 38.8589C28.4247 38.8589 28.2751 38.7878 28.1647 38.701L27.964 38.5432V37.5585V36.5739H28.4972H29.0304V37.5585Z"/>
       </symbol>      
       <symbol id="menu-icon-5" viewBox="0 0 40 40">
         <path d="M26.0189 25.7487C25.8464 25.5827 25.9147 25.3581 26.1751 25.2474C26.4355 25.1367 26.7839 25.1823 26.9596 25.345C28.1901 26.5169 27.5977 27.4674 27.028 28.3789C26.5983 29.069 26.1849 29.7298 26.9466 30.3939C27.1322 30.5566 27.0768 30.7812 26.8262 30.8984C26.5755 31.0156 26.2207 30.9831 26.0352 30.8203C24.9056 29.834 25.4297 28.9909 25.9798 28.112C26.4388 27.373 26.9206 26.6048 26.0189 25.7487ZM4.74284 18.1771H28.7174C29.0299 18.1771 29.2839 18.431 29.2839 18.7435V22.7344H37.1387C37.6139 22.7344 38.0469 22.5391 38.3594 22.2266C38.6719 21.9141 38.8672 21.4811 38.8672 21.0059V11.8913C38.8672 11.416 38.6719 10.9831 38.3594 10.6706C38.0469 10.3581 37.6139 10.1628 37.1387 10.1628H2.86458C2.38932 10.1628 1.95638 10.3581 1.64388 10.6706C1.32812 10.9831 1.13281 11.416 1.13281 11.8913V21.0059C1.13281 21.4811 1.32812 21.9141 1.64062 22.2266C1.95312 22.5391 2.38607 22.7344 2.86133 22.7344H4.17318V18.7435C4.17643 18.431 4.43034 18.1771 4.74284 18.1771ZM28.151 19.3099H5.30924V22.5944H28.151V19.3099ZM4.95117 13.4668C4.63867 13.4668 4.38477 13.2129 4.38477 12.9004C4.38477 12.5879 4.63867 12.334 4.95117 12.334H35.4655C35.778 12.334 36.0319 12.5879 36.0319 12.9004C36.0319 13.2129 35.778 13.4668 35.4655 13.4668H4.95117ZM32.0898 19.4401C32.5326 19.4401 32.8906 19.7982 32.8906 20.2409C32.8906 20.6836 32.5326 21.0417 32.0898 21.0417C31.6471 21.0417 31.2891 20.6836 31.2891 20.2409C31.2891 19.7982 31.6504 19.4401 32.0898 19.4401ZM35.4329 19.4401C35.8756 19.4401 36.2337 19.7982 36.2337 20.2409C36.2337 20.6836 35.8756 21.0417 35.4329 21.0417C34.9902 21.0417 34.6322 20.6836 34.6322 20.2409C34.6322 19.7982 34.9902 19.4401 35.4329 19.4401ZM2.86458 9.0267H37.1387C37.9264 9.0267 38.6426 9.34896 39.1602 9.86654C39.6777 10.3841 40 11.1003 40 11.888V21.0059C40 21.7936 39.6777 22.5098 39.1602 23.0273C38.6426 23.5449 37.9264 23.8672 37.1387 23.8672H2.86458C2.07682 23.8672 1.36068 23.5449 0.843099 23.0273C0.322266 22.5098 0 21.7936 0 21.0059V11.8913C0 11.1035 0.322266 10.3874 0.839844 9.8698C1.36068 9.34896 2.07682 9.0267 2.86458 9.0267ZM4.95117 16.11C4.63867 16.11 4.38477 15.8561 4.38477 15.5436C4.38477 15.2311 4.63867 14.9772 4.95117 14.9772H35.4655C35.778 14.9772 36.0319 15.2311 36.0319 15.5436C36.0319 15.8561 35.778 16.11 35.4655 16.11H4.95117ZM6.95638 25.7487C6.78385 25.5827 6.85221 25.3581 7.11263 25.2474C7.37305 25.1367 7.72135 25.1823 7.89713 25.345C9.1276 26.5169 8.53516 27.4674 7.96549 28.3789C7.53581 29.069 7.1224 29.7298 7.88411 30.3939C8.06966 30.5566 8.01432 30.7812 7.76367 30.8984C7.51302 31.0156 7.1582 30.9831 6.97266 30.8203C5.8431 29.834 6.36719 28.9909 6.91732 28.112C7.3763 27.373 7.85482 26.6048 6.95638 25.7487ZM11.722 25.7487C11.5495 25.5827 11.6178 25.3581 11.8783 25.2474C12.1387 25.1367 12.487 25.1823 12.6628 25.345C13.8932 26.5169 13.3008 27.4674 12.7311 28.3789C12.3014 29.069 11.888 29.7298 12.6497 30.3939C12.8353 30.5566 12.7799 30.7812 12.5293 30.8984C12.2786 31.0156 11.9238 30.9831 11.7383 30.8203C10.6087 29.834 11.1328 28.9909 11.6829 28.112C12.1419 27.373 12.6204 26.6048 11.722 25.7487ZM16.4876 25.7487C16.3151 25.5827 16.3835 25.3581 16.6439 25.2474C16.9043 25.1367 17.2526 25.1823 17.4284 25.345C18.6589 26.5169 18.0664 27.4674 17.4967 28.3789C17.0671 29.069 16.6536 29.7298 17.4154 30.3939C17.6009 30.5566 17.5456 30.7812 17.2949 30.8984C17.0443 31.0156 16.6895 30.9831 16.5039 30.8203C15.3743 29.834 15.8984 28.9909 16.4486 28.112C16.9076 27.373 17.3893 26.6048 16.4876 25.7487ZM21.2533 25.7487C21.0807 25.5827 21.1491 25.3581 21.4095 25.2474C21.6699 25.1367 22.0182 25.1823 22.194 25.345C23.4245 26.5169 22.832 27.4674 22.2624 28.3789C21.8327 29.069 21.4193 29.7298 22.181 30.3939C22.3665 30.5566 22.3112 30.7812 22.0605 30.8984C21.8099 31.0156 21.4551 30.9831 21.2695 30.8203C20.14 29.834 20.6673 28.9909 21.2142 28.112C21.6732 27.373 22.1549 26.6048 21.2533 25.7487Z"/>
       </symbol>      
       <symbol id="menu-icon-6" viewBox="0 0 40 40">
         <path fill-rule="evenodd" clip-rule="evenodd" d="M19.4675 1.09391C18.1634 1.42248 16.928 2.66339 16.7015 3.87192L16.6507 4.14365L13.2514 4.19608L12.7238 4.44643C11.3612 5.09287 11.3565 5.10254 8.6226 12.8425C6.18822 19.7344 5.35806 26.5263 6.22598 32.4487C6.49362 34.2751 7.13549 34.9694 8.55612 34.9694H9.05232V36.227H8.8251C7.14224 36.227 5.14967 38.8499 6.1055 39.807L6.29811 40H34.4111L34.6037 39.807C35.5695 38.8398 33.5803 36.227 31.878 36.227H31.6568V34.986L32.2672 34.9581C33.7841 34.8886 34.2468 34.2704 34.5635 31.8901C35.1591 27.4132 34.5903 21.0846 33.1411 16.0652C32.6112 14.2297 29.8468 6.46238 29.4895 5.80494C29.1987 5.26981 28.6208 4.74788 27.9854 4.44643L27.4577 4.19608L24.0585 4.14365L24.0056 3.86107C23.6607 2.02002 21.3599 0.617025 19.4675 1.09391ZM21.3751 2.51365C21.827 2.70835 22.4169 3.30519 22.6315 3.78483L22.7803 4.11748L21.5675 4.13909C20.9004 4.15104 19.8088 4.15104 19.1417 4.13909L17.9288 4.11748L18.0762 3.78813C18.6379 2.53244 20.1041 1.9661 21.3751 2.51365ZM27.2133 5.52574C27.6657 5.66204 28.07 5.96175 28.3178 6.34439C28.5354 6.68043 31.2574 14.2279 31.7244 15.7901C33.3466 21.2168 33.9009 27.0585 33.2607 31.9824C33.1035 33.1915 33.0068 33.4445 32.6433 33.5966L32.3683 33.7117L8.2282 33.7112L7.9812 33.5603C7.22371 33.0977 6.94139 27.6439 7.44788 23.2574C7.91527 19.2098 8.51712 16.9189 10.7516 10.6809C12.4481 5.94493 12.5092 5.82891 13.4651 5.52998C13.9763 5.3701 26.684 5.36617 27.2133 5.52574ZM14.0694 6.85084C13.2343 7.41443 13.2343 8.44507 14.0694 9.00866C14.6163 9.37778 15.3642 9.18379 15.7808 8.56471C16.4792 7.52675 15.1059 6.15134 14.0694 6.85084ZM17.8368 6.85084C17.0017 7.41443 17.0017 8.44507 17.8368 9.00866C18.3838 9.37778 19.1317 9.18379 19.5482 8.56471C20.2467 7.52675 18.8733 6.15134 17.8368 6.85084ZM18.6671 9.92691C9.35105 11.491 5.78526 22.8123 12.5609 29.3138C18.5206 35.0326 28.4629 32.5666 31.068 24.7235C33.0018 18.9019 29.948 12.5714 24.2005 10.4873C22.5876 9.90238 20.2333 9.66398 18.6671 9.92691ZM19.7267 18.0513L19.5514 18.0972C19.455 18.1224 19.3537 18.1177 19.3262 18.0867C19.2255 17.9733 15.8722 12.1568 15.8957 12.1365C16.2301 11.8475 18.5975 11.1887 19.3931 11.1632L19.7267 11.1525V18.0513ZM22.7685 11.3914C23.1028 11.476 23.5776 11.6196 23.8235 11.7106L24.2707 11.876L22.7252 14.9728C21.8751 16.676 21.1353 18.0696 21.0811 18.0696C21.0034 18.0696 20.9825 17.332 20.9825 14.6002V11.1308L21.5715 11.1843C21.8955 11.2136 22.4341 11.3069 22.7685 11.3914ZM26.0714 12.9012C26.7539 13.3691 28.056 14.6261 28.4245 15.1728L28.6708 15.5381L22.6904 19.0298L22.3046 18.6434L23.8414 15.5661C24.6866 13.8735 25.3988 12.4888 25.424 12.4888C25.4492 12.4888 25.7406 12.6743 26.0714 12.9012ZM16.5462 15.8583L18.2528 18.7954L17.8665 19.1822L14.7937 17.6432C13.1036 16.7967 11.7209 16.0835 11.7209 16.0582C11.7209 15.5873 14.5733 12.6195 14.79 12.8649C14.8173 12.8958 15.6076 14.2428 16.5462 15.8583ZM29.5173 17.0688C29.9305 18.0357 30.3225 19.5717 30.3225 20.2239V20.5063H23.4156L23.4038 20.3884C23.3973 20.3236 23.3885 20.2344 23.3842 20.1903C23.3779 20.1256 29.165 16.6746 29.3022 16.6613C29.3238 16.6591 29.4206 16.8425 29.5173 17.0688ZM17.2936 20.4076C17.2936 20.4853 16.557 20.5063 13.8293 20.5063H10.365L10.4183 19.9164C10.4774 19.2635 10.6911 18.3468 10.9439 17.6611L11.109 17.2132L14.2013 18.7611C15.902 19.6124 17.2936 20.3533 17.2936 20.4076ZM21.1883 19.4706C22.9313 20.3681 22.311 22.9765 20.3546 22.9765C18.1782 22.9765 17.7949 20.0022 19.8832 19.3175C20.1854 19.2184 20.8499 19.2963 21.1883 19.4706ZM17.3211 21.9395C17.3463 22.036 17.3416 22.1375 17.3106 22.1651C17.2031 22.2608 11.3901 25.6247 11.374 25.6006C11.0117 25.0559 10.3866 22.7956 10.3866 22.0304V21.764H17.2753L17.3211 21.9395ZM30.2908 22.3539C30.2317 23.0068 30.0181 23.9235 29.7653 24.6092L29.6001 25.0571L26.5079 23.5092C24.8071 22.6579 23.4156 21.917 23.4156 21.8627C23.4156 21.785 24.1521 21.764 26.8799 21.764H30.3442L30.2908 22.3539ZM25.9276 24.6332C27.6109 25.4763 28.9883 26.1868 28.9883 26.2121C28.9883 26.5428 27.051 28.7147 26.3081 29.2169L25.9434 29.4636L22.4596 23.4791L22.6373 23.2897C22.7351 23.1855 22.8267 23.1002 22.841 23.1002C22.8553 23.1002 24.2443 23.7901 25.9276 24.6332ZM18.2266 23.4446L18.4021 23.6317L16.8666 26.7066C16.022 28.3978 15.3103 29.7815 15.2851 29.7815C14.9551 29.7815 12.7862 27.8415 12.2852 27.0982L12.0394 26.7336L15.0001 25C18.3753 23.0237 18.001 23.2042 18.2266 23.4446ZM23.0982 27.1172C24.0552 28.7646 24.8271 30.1198 24.8136 30.1288C24.2738 30.4905 22.0128 31.1178 21.2486 31.1178H20.9825V24.2122L21.1198 24.1762C21.1953 24.1565 21.28 24.1362 21.3077 24.1312C21.3355 24.1262 22.1412 25.4699 23.0982 27.1172ZM19.7267 27.6701V31.1395L19.1376 31.086C18.4857 31.0269 17.5704 30.8129 16.8857 30.5597L16.4384 30.3943L17.984 27.2975C18.834 25.5942 19.5739 24.2007 19.6281 24.2007C19.7057 24.2007 19.7267 24.9383 19.7267 27.6701ZM30.401 36.227H10.3081V34.9694H30.401V36.227ZM32.4417 37.6705C32.8867 37.9079 33.3836 38.4505 33.3836 38.6991C33.3836 38.7229 27.5205 38.7423 20.3546 38.7423C13.1886 38.7423 7.32559 38.7223 7.32559 38.6979C7.32559 38.3526 8.00647 37.7341 8.58093 37.5576C8.68908 37.5244 14.0402 37.5032 20.4723 37.5105L32.167 37.524L32.4417 37.6705Z"/>
       </symbol>    
       <symbol id="menu-icon-7" viewBox="0 0 40 40">
         <path d="M7.15239 1.11281C3.07187 1.8532 0.5 5.14306 0.5 9.62243C0.5 11.2218 0.652572 11.5225 1.32151 11.2412C1.6227 11.1146 1.62689 11.0925 1.67076 9.41699C1.76758 5.71466 3.65184 3.18743 6.93652 2.35449L7.62207 2.18066H20H32.3779L33.0635 2.35449C35.5941 2.99624 37.4996 4.9064 38.1485 7.45168L38.3193 8.12207V20.5V32.8779L38.1455 33.5635C37.5038 36.0941 35.5936 37.9996 33.0483 38.6485L32.3779 38.8193H20H7.62207L6.95168 38.6485C4.42483 38.0044 2.52465 36.1219 1.85723 33.6016L1.68577 32.9541L1.64509 22.9117L1.60449 12.8693L1.42465 12.7237C1.18014 12.5257 0.911252 12.5408 0.687002 12.7651L0.5 12.9521V22.8098C0.5 31.1353 0.517367 32.7668 0.61182 33.3059C1.1988 36.6575 3.8425 39.3012 7.19406 39.8882L7.83246 40H20H32.1675L32.8059 39.8882C36.1575 39.3012 38.8012 36.6575 39.3882 33.3059L39.5 32.6675V20.5V8.33246L39.3882 7.69406C38.8012 4.3425 36.1575 1.6988 32.8059 1.11182L32.1675 1L19.9329 1.00686C10.2479 1.01234 7.58452 1.03435 7.15239 1.11281ZM18.6586 2.83049C9.41706 3.54521 2.30604 11.229 2.30604 20.5C2.30604 32.5548 14.0073 41.0399 25.5226 37.3355C27.7493 36.6192 28.45 36.0903 27.9224 35.524C27.706 35.2917 27.4332 35.3083 26.8089 35.5919C21.9102 37.8168 15.882 37.4325 11.3293 34.6049C4.1043 30.1177 1.42252 20.9489 5.09827 13.3018C9.03871 5.10376 18.9686 1.64251 27.1982 5.59827C35.3962 9.53871 38.8575 19.4686 34.9017 27.6982C33.8376 29.9122 32.0272 32.1525 30.1834 33.5369C28.996 34.4286 28.8436 34.6825 29.2515 35.0903C29.6603 35.4993 30.5944 34.8974 32.5 32.997C44.0699 21.459 34.9446 1.57098 18.6586 2.83049ZM5.52384 4.6839C4.46497 4.96901 3.94685 6.10999 4.43313 7.08575C5.24475 8.71438 7.66602 8.13609 7.65848 6.31543C7.65383 5.19623 6.60327 4.39323 5.52384 4.6839ZM33.6895 4.66341C32.8481 4.86092 32.3398 5.48934 32.3398 6.33203C32.3398 8.13929 34.7601 8.70456 35.5669 7.08575C36.2025 5.81018 35.0636 4.34075 33.6895 4.66341ZM18.7812 5.1129C9.28506 5.91377 2.73085 15.0283 5.03245 24.2324C7.23542 33.0421 16.7044 38.1135 25.1797 35.0227C33.9957 31.8077 37.9832 21.6967 33.7007 13.416C33.1162 12.2859 32.6978 11.9795 32.3226 12.4067C32.0626 12.7027 32.0861 12.8512 32.5212 13.6624C35.198 18.6531 34.7329 24.6497 31.3205 29.1455C24.9017 37.6021 11.4977 36.1644 7.09976 26.5477C2.69063 16.9065 9.54808 6.26835 20.1523 6.29859L21.79 6.30331L22.7617 6.5086C25.7348 7.13686 27.8552 8.27891 30.1038 10.4631C31.1692 11.4979 31.3201 11.5782 31.639 11.2811C32.0697 10.8798 31.968 10.661 30.8255 9.53087C27.6499 6.38946 23.1623 4.74339 18.7812 5.1129ZM6.35967 5.99954C6.56214 6.25685 6.5597 6.46777 6.35198 6.68897C6.01027 7.05262 5.42581 6.82738 5.42581 6.33203C5.42581 5.81947 6.04478 5.59911 6.35967 5.99954ZM34.4355 5.95216C34.7437 6.29273 34.5119 6.86523 34.0658 6.86523C33.7899 6.86523 33.4824 6.60267 33.4824 6.36715C33.4824 5.89214 34.1271 5.61145 34.4355 5.95216ZM19.4668 6.71708C17.8875 6.92869 16.6904 8.12984 16.4659 9.72831C16.377 10.3604 16.736 13.4264 17.2336 16.2845L17.2755 16.5251L16.7287 17.0409C15.92 17.8038 15.4318 18.7419 15.2441 19.894L15.2002 20.1639L14.3818 20.4602C11.3175 21.5693 8.92857 22.7311 8.38615 23.3761C6.09909 26.0952 9.02988 30.3288 12.2881 29.0125C12.9445 28.7474 15.2721 27.0665 17.0742 25.5564L17.9188 24.8487L18.4833 25.0485L19.0479 25.2484L19.9619 25.2546L20.876 25.2607L21.5025 25.0484L22.129 24.836L22.7555 25.3774C24.0982 26.5376 26.9375 28.5951 27.6687 28.9376L28.1123 29.1455H28.9542H29.7962L30.3907 28.8516C32.6303 27.7446 33.1854 24.8909 31.4952 23.1738C30.9459 22.6157 28.6165 21.5146 25.8271 20.4944C25.0102 20.1956 24.8281 20.1011 24.7865 19.9543C24.7587 19.8564 24.6624 19.5021 24.5724 19.167C24.3531 18.3496 23.9343 17.6663 23.2669 17.0367L22.7157 16.5167L22.9204 15.2901C23.3832 12.516 23.5879 9.97206 23.4053 9.26465C22.9691 7.57546 21.2688 6.47562 19.4668 6.71708ZM20.8601 8.00842C22.4664 8.60942 22.6415 9.97686 21.7673 15.0918L21.6306 15.8916L21.4438 15.8818C21.3409 15.8764 20.9741 15.8282 20.6284 15.7747C20.0153 15.6798 19.7187 15.6981 18.5891 15.9006L18.359 15.9419L18.1498 14.6599C17.7305 12.0905 17.5504 9.91813 17.7149 9.41265C18.1122 8.192 19.5888 7.53273 20.8601 8.00842ZM20.9958 17.0338C22.87 17.5636 24.0303 19.6272 23.4833 21.4577C22.4306 24.98 17.5694 24.98 16.5167 21.4577C15.7268 18.8148 18.3011 16.2721 20.9958 17.0338ZM26.9697 22.1878C30.6622 23.6739 31.2949 24.1682 31.2977 25.5689C31.3012 27.243 29.4324 28.5679 28.0742 27.8544C27.5233 27.5649 25.0094 25.7267 23.8086 24.7351C23.4525 24.441 23.1479 24.1915 23.1317 24.1807C23.1156 24.1698 23.2909 23.9572 23.5214 23.7082C23.9579 23.2368 24.5102 22.236 24.6488 21.6656L24.7264 21.3458L25.4672 21.6136C25.8747 21.7608 26.5508 22.0192 26.9697 22.1878ZM15.3964 21.795C15.5845 22.5041 16.0789 23.345 16.6031 23.8475C16.7537 23.9919 16.877 24.1326 16.877 24.1604C16.877 24.3635 12.4787 27.6848 11.8763 27.9364C10.4343 28.539 8.76731 27.289 8.76541 25.6035C8.76366 24.1131 9.44494 23.6266 14.0586 21.823C15.2663 21.3508 15.2786 21.3505 15.3964 21.795ZM5.51371 33.0206C4.46429 33.3081 3.94662 34.4454 4.42658 35.4085C5.2353 37.0315 7.66016 36.4761 7.66016 34.668C7.66016 33.5255 6.61066 32.72 5.51371 33.0206ZM33.6729 32.9872C32.8641 33.1841 32.3398 33.8452 32.3398 34.668C32.3398 36.4761 34.7647 37.0315 35.5734 35.4085C36.0704 34.4113 35.4921 33.2343 34.3889 32.9977C33.9708 32.908 33.9967 32.9084 33.6729 32.9872ZM6.34132 34.3004C6.55962 34.5055 6.56572 34.7386 6.35967 35.0005C6.04478 35.4009 5.42581 35.1805 5.42581 34.668C5.42581 34.1809 5.97813 33.9592 6.34132 34.3004ZM34.4355 34.2881C34.7512 34.637 34.5114 35.2012 34.0475 35.2012C33.7697 35.2012 33.4824 34.9176 33.4824 34.6436C33.4824 34.2156 34.1459 33.9681 34.4355 34.2881Z"/>
       </symbol>    
       <symbol id="icon-more" viewBox="0 0 40 40" fill="none">
         <circle cx="20" cy="20" r="16.4" stroke="#445664" stroke-width="1.2"/>
         <circle cx="13" cy="20.5" r="1.5" fill="#445664"/>
         <circle cx="20" cy="20.5" r="1.5" fill="#445664"/>
         <circle cx="27" cy="20.5" r="1.5" fill="#445664"/>
       </symbol>        
       <symbol id="icon-arrow" viewBox="0 0 30 30" fill="none">
         <path d="M27.5 15C27.5 8.09644 21.9036 2.5 15 2.5C8.09644 2.5 2.5 8.09644 2.5 15C2.5 21.9036 8.09644 27.5 15 27.5C21.9036 27.5 27.5 21.9036 27.5 15Z" stroke="currentColor" stroke-width="2"  />
         <path d="M15 20L20 15L15 10" stroke="currentColor" stroke-width="2" />
         <path d="M10 15L20 15" stroke="currentColor" stroke-width="2"/>
       </symbol>        
       <symbol id="icon-star" viewBox="0 0 20 20">
         <path d="M10 0L13.09 6.26L20 7.27L15 12.14L16.18 19.02L10 15.77L3.82 19.02L5 12.14L0 7.27L6.91 6.26L10 0Z" fill="#FFC32C"/>
       </symbol>        
       <symbol id="icon-list" viewBox="0 0 14 14" fill="none">
         <path d="M5 11L9.5 6.5L5 2" stroke="currentColor" stroke-width="1.2" />
       </symbol>        
       <symbol id="icon-next" viewBox="0 0 18 18" fill="none">
         <path d="M6.75 13.5L11.25 9L6.75 4.5" stroke="#445664" stroke-width="1.2" stroke-linecap="round" stroke-linejoin="round"/>
       </symbol>        
       <symbol id="icon-phone" viewBox="0 0 20 20" fill="none">
         <path d="M18.3332 14.1V16.6C18.3341 16.8321 18.2866 17.0618 18.1936 17.2744C18.1006 17.4871 17.9643 17.678 17.7933 17.8349C17.6222 17.9918 17.4203 18.1112 17.2005 18.1856C16.9806 18.2599 16.7477 18.2875 16.5165 18.2666C13.9522 17.988 11.489 17.1118 9.32486 15.7083C7.31139 14.4289 5.60431 12.7218 4.32486 10.7083C2.91651 8.53432 2.04007 6.05914 1.76653 3.48331C1.7457 3.25287 1.77309 3.02061 1.84695 2.80133C1.9208 2.58205 2.03951 2.38055 2.1955 2.20966C2.3515 2.03877 2.54137 1.90224 2.75302 1.80875C2.96468 1.71526 3.19348 1.66686 3.42486 1.66665H5.92486C6.32928 1.66267 6.72136 1.80588 7.028 2.06959C7.33464 2.3333 7.53493 2.69952 7.59153 3.09998C7.69705 3.90003 7.89274 4.68558 8.17486 5.44165C8.28698 5.73992 8.31125 6.06407 8.24478 6.37571C8.17832 6.68735 8.02392 6.9734 7.79986 7.19998L6.74153 8.25831C7.92783 10.3446 9.65524 12.072 11.7415 13.2583L12.7999 12.2C13.0264 11.9759 13.3125 11.8215 13.6241 11.7551C13.9358 11.6886 14.2599 11.7129 14.5582 11.825C15.3143 12.1071 16.0998 12.3028 16.8999 12.4083C17.3047 12.4654 17.6744 12.6693 17.9386 12.9812C18.2029 13.2931 18.3433 13.6913 18.3332 14.1Z" stroke="currentColor" stroke-width="1.5" />
       </symbol>        
       <symbol id="icon-email" viewBox="0 0 20 20" fill="none">
        <path d="M18.3327 4.99998C18.3327 4.08331 17.5827 3.33331 16.666 3.33331H3.33268C2.41602 3.33331 1.66602 4.08331 1.66602 4.99998M18.3327 4.99998V15C18.3327 15.9166 17.5827 16.6666 16.666 16.6666H3.33268C2.41602 16.6666 1.66602 15.9166 1.66602 15V4.99998M18.3327 4.99998L9.99935 10.8333L1.66602 4.99998" stroke="currentColor" stroke-width="1.5"/>
       </symbol>        
       <symbol id="icon-address" viewBox="0 0 20 20" fill="none">
         <path d="M17.5 8.33331C17.5 14.1666 10 19.1666 10 19.1666C10 19.1666 2.5 14.1666 2.5 8.33331C2.5 6.34419 3.29018 4.43654 4.6967 3.03001C6.10322 1.62349 8.01088 0.833313 10 0.833313C11.9891 0.833313 13.8968 1.62349 15.3033 3.03001C16.7098 4.43654 17.5 6.34419 17.5 8.33331Z" stroke="#73B936" stroke-width="1.5" stroke-linecap="round" stroke-linejoin="round"/>
          <path d="M10 10.8333C11.3807 10.8333 12.5 9.71402 12.5 8.33331C12.5 6.9526 11.3807 5.83331 10 5.83331C8.61929 5.83331 7.5 6.9526 7.5 8.33331C7.5 9.71402 8.61929 10.8333 10 10.8333Z" stroke="#73B936" stroke-width="1.5" stroke-linecap="round" stroke-linejoin="round"/>
       </symbol>        
       <symbol id="" viewBox="0 0 18 18"></symbol>        
       <symbol id="" viewBox="0 0 18 18"></symbol>        
     </defs>
 </svg>