<svg width="30" height="30" viewBox="0 0 30 30" fill="none" xmlns="http://www.w3.org/2000/svg">
<path fill-rule="evenodd" clip-rule="evenodd" d="M5.12078 4.04813C4.68237 3.89313 4.20201 4.12487 4.04786 4.56572C3.89372 5.00658 4.12418 5.48962 4.5626 5.64462L4.85566 5.74822C5.60467 6.01303 6.09693 6.18852 6.45914 6.36723C6.79935 6.53508 6.94931 6.67095 7.04811 6.81633C7.14938 6.96535 7.22758 7.17003 7.2717 7.57995C7.31787 8.0089 7.31902 8.56759 7.31902 9.40239V12.4729C7.31902 14.1116 7.33431 15.2933 7.48808 16.1961C7.65224 17.1599 7.98 17.8499 8.59285 18.4999C9.25912 19.2065 10.1037 19.5142 11.1092 19.6576C12.0721 19.7949 13.2949 19.7949 14.8047 19.7949H20.8696C21.7018 19.7949 22.4018 19.7949 22.9684 19.7251C23.5695 19.6512 24.1176 19.4895 24.5961 19.0974C25.0746 18.7053 25.3428 18.198 25.5362 17.6211C25.7184 17.0771 25.8598 16.3876 26.0277 15.5681L26.5987 12.7822L26.5998 12.777L26.6115 12.718C26.7963 11.7874 26.9517 11.0046 26.9904 10.3749C27.0309 9.71357 26.956 9.06147 26.5277 8.50145C26.264 8.15687 25.8934 7.9618 25.5563 7.84269C25.2124 7.72119 24.8236 7.65091 24.4312 7.60679C23.6603 7.52015 22.724 7.52016 21.8055 7.52017H8.95684C8.95315 7.47871 8.94915 7.43793 8.94484 7.39784C8.88456 6.83783 8.75394 6.32708 8.43758 5.86154C8.11875 5.39238 7.69482 5.0919 7.20046 4.84798C6.73812 4.61986 6.15064 4.41219 5.45893 4.16767L5.12078 4.04813ZM9.00193 9.21245H21.7704C22.7313 9.21245 23.5769 9.21358 24.2442 9.28859C24.5758 9.32587 24.824 9.37765 24.9984 9.43927C25.1408 9.48964 25.1891 9.53076 25.196 9.5367C25.2649 9.62855 25.3398 9.79518 25.3106 10.2707C25.2799 10.7711 25.1491 11.4393 24.9499 12.4433L24.9494 12.4458L24.3898 15.1762C24.2087 16.0593 24.0869 16.6464 23.9414 17.0806C23.8033 17.4928 23.6736 17.6704 23.533 17.7856C23.3925 17.9006 23.1934 17.9926 22.764 18.0454C22.3116 18.1011 21.7153 18.1026 20.8186 18.1026H14.869C13.2795 18.1026 12.1765 18.1005 11.3455 17.9821C10.5436 17.8677 10.1199 17.6599 9.81411 17.3355C9.4549 16.9546 9.26115 16.5816 9.14684 15.9104C9.02212 15.1781 9.00193 14.1528 9.00193 12.4729V9.21245Z" fill="#73B936"/>
<path fill-rule="evenodd" clip-rule="evenodd" d="M11.0124 25.9999C9.61819 25.9999 8.48799 24.8634 8.48799 23.4615C8.48799 22.0595 9.61819 20.923 11.0124 20.923C12.4065 20.923 13.5367 22.0595 13.5367 23.4615C13.5367 24.8634 12.4065 25.9999 11.0124 25.9999ZM10.1709 23.4615C10.1709 23.9288 10.5476 24.3076 11.0124 24.3076C11.4771 24.3076 11.8538 23.9288 11.8538 23.4615C11.8538 22.9942 11.4771 22.6153 11.0124 22.6153C10.5476 22.6153 10.1709 22.9942 10.1709 23.4615Z" fill="#73B936"/>
<path fill-rule="evenodd" clip-rule="evenodd" d="M21.1098 26C19.7157 26 18.5855 24.8635 18.5855 23.4616C18.5855 22.0596 19.7157 20.9232 21.1098 20.9232C22.5039 20.9232 23.6342 22.0596 23.6342 23.4616C23.6342 24.8635 22.5039 26 21.1098 26ZM20.2684 23.4616C20.2684 23.9289 20.6451 24.3077 21.1098 24.3077C21.5745 24.3077 21.9513 23.9289 21.9513 23.4616C21.9513 22.9943 21.5745 22.6154 21.1098 22.6154C20.6451 22.6154 20.2684 22.9943 20.2684 23.4616Z" fill="#73B936"/>
</svg>
