<svg width="40" height="40" viewBox="0 0 40 40" fill="none" xmlns="http://www.w3.org/2000/svg">
<g clip-path="url(#clip0_5_864)">
<path d="M37.9717 8.03859H35.6846C34.5662 8.03859 33.6563 8.94843 33.6563 10.0669V10.8398H6.3843V10.0669C6.3843 8.94843 5.47438 8.03859 4.35594 8.03859H2.02828C0.909844 8.03859 0 8.94843 0 10.0669V29.9332C0 31.0516 0.909844 31.9615 2.02828 31.9615H4.35594C5.47438 31.9615 6.3843 31.0516 6.3843 29.9332V29.1602H33.6563V29.9332C33.6563 31.0516 34.5662 31.9615 35.6846 31.9615H37.9717C39.0902 31.9615 40 31.0516 40 29.9332V10.0669C40 8.94843 39.0902 8.03859 37.9717 8.03859ZM4.7907 29.9331C4.7907 30.1728 4.5957 30.3678 4.35594 30.3678H2.02828C1.78859 30.3678 1.59359 30.1728 1.59359 29.9331V10.0669C1.59359 9.82718 1.78859 9.63218 2.02828 9.63218H4.35594C4.5957 9.63218 4.7907 9.82718 4.7907 10.0669V29.9331ZM33.6563 27.5666H6.3843V12.4334H33.6563V27.5666ZM38.4064 29.9331C38.4064 30.1728 38.2114 30.3678 37.9717 30.3678H35.6846C35.4449 30.3678 35.2499 30.1728 35.2499 29.9331V10.0669C35.2499 9.82718 35.4449 9.63218 35.6846 9.63218H37.9717C38.2114 9.63218 38.4064 9.82718 38.4064 10.0669V29.9331Z" fill="#445664"/>
<path d="M21.6646 24.9682H21.2587C20.8187 24.9682 20.4619 25.325 20.4619 25.765C20.4619 26.205 20.8187 26.5618 21.2587 26.5618H21.6646C22.1046 26.5618 22.4614 26.205 22.4614 25.765C22.4614 25.325 22.1046 24.9682 21.6646 24.9682Z" fill="#445664"/>
<path d="M18.1732 24.9682H8.51066C8.07066 24.9682 7.71387 25.325 7.71387 25.765C7.71387 26.205 8.07066 26.5618 8.51066 26.5618H18.1732C18.6132 26.5618 18.97 26.205 18.97 25.765C18.97 25.325 18.6132 24.9682 18.1732 24.9682Z" fill="#445664"/>
</g>
<defs>
<clipPath id="clip0_5_864">
<rect width="40" height="40" fill="white"/>
</clipPath>
</defs>
</svg>
