<svg width="40" height="40" viewBox="0 0 40 40" fill="none" xmlns="http://www.w3.org/2000/svg">
<path fill-rule="evenodd" clip-rule="evenodd" d="M19.4675 1.09391C18.1634 1.42248 16.928 2.66339 16.7015 3.87192L16.6507 4.14365L13.2514 4.19608L12.7238 4.44643C11.3612 5.09287 11.3565 5.10254 8.6226 12.8425C6.18822 19.7344 5.35806 26.5263 6.22598 32.4487C6.49362 34.2751 7.13549 34.9694 8.55612 34.9694H9.05232V36.227H8.8251C7.14224 36.227 5.14967 38.8499 6.1055 39.807L6.29811 40H34.4111L34.6037 39.807C35.5695 38.8398 33.5803 36.227 31.878 36.227H31.6568V34.986L32.2672 34.9581C33.7841 34.8886 34.2468 34.2704 34.5635 31.8901C35.1591 27.4132 34.5903 21.0846 33.1411 16.0652C32.6112 14.2297 29.8468 6.46238 29.4895 5.80494C29.1987 5.26981 28.6208 4.74788 27.9854 4.44643L27.4577 4.19608L24.0585 4.14365L24.0056 3.86107C23.6607 2.02002 21.3599 0.617025 19.4675 1.09391ZM21.3751 2.51365C21.827 2.70835 22.4169 3.30519 22.6315 3.78483L22.7803 4.11748L21.5675 4.13909C20.9004 4.15104 19.8088 4.15104 19.1417 4.13909L17.9288 4.11748L18.0762 3.78813C18.6379 2.53244 20.1041 1.9661 21.3751 2.51365ZM27.2133 5.52574C27.6657 5.66204 28.07 5.96175 28.3178 6.34439C28.5354 6.68043 31.2574 14.2279 31.7244 15.7901C33.3466 21.2168 33.9009 27.0585 33.2607 31.9824C33.1035 33.1915 33.0068 33.4445 32.6433 33.5966L32.3683 33.7117L8.2282 33.7112L7.9812 33.5603C7.22371 33.0977 6.94139 27.6439 7.44788 23.2574C7.91527 19.2098 8.51712 16.9189 10.7516 10.6809C12.4481 5.94493 12.5092 5.82891 13.4651 5.52998C13.9763 5.3701 26.684 5.36617 27.2133 5.52574ZM14.0694 6.85084C13.2343 7.41443 13.2343 8.44507 14.0694 9.00866C14.6163 9.37778 15.3642 9.18379 15.7808 8.56471C16.4792 7.52675 15.1059 6.15134 14.0694 6.85084ZM17.8368 6.85084C17.0017 7.41443 17.0017 8.44507 17.8368 9.00866C18.3838 9.37778 19.1317 9.18379 19.5482 8.56471C20.2467 7.52675 18.8733 6.15134 17.8368 6.85084ZM18.6671 9.92691C9.35105 11.491 5.78526 22.8123 12.5609 29.3138C18.5206 35.0326 28.4629 32.5666 31.068 24.7235C33.0018 18.9019 29.948 12.5714 24.2005 10.4873C22.5876 9.90238 20.2333 9.66398 18.6671 9.92691ZM19.7267 18.0513L19.5514 18.0972C19.455 18.1224 19.3537 18.1177 19.3262 18.0867C19.2255 17.9733 15.8722 12.1568 15.8957 12.1365C16.2301 11.8475 18.5975 11.1887 19.3931 11.1632L19.7267 11.1525V18.0513ZM22.7685 11.3914C23.1028 11.476 23.5776 11.6196 23.8235 11.7106L24.2707 11.876L22.7252 14.9728C21.8751 16.676 21.1353 18.0696 21.0811 18.0696C21.0034 18.0696 20.9825 17.332 20.9825 14.6002V11.1308L21.5715 11.1843C21.8955 11.2136 22.4341 11.3069 22.7685 11.3914ZM26.0714 12.9012C26.7539 13.3691 28.056 14.6261 28.4245 15.1728L28.6708 15.5381L22.6904 19.0298L22.3046 18.6434L23.8414 15.5661C24.6866 13.8735 25.3988 12.4888 25.424 12.4888C25.4492 12.4888 25.7406 12.6743 26.0714 12.9012ZM16.5462 15.8583L18.2528 18.7954L17.8665 19.1822L14.7937 17.6432C13.1036 16.7967 11.7209 16.0835 11.7209 16.0582C11.7209 15.5873 14.5733 12.6195 14.79 12.8649C14.8173 12.8958 15.6076 14.2428 16.5462 15.8583ZM29.5173 17.0688C29.9305 18.0357 30.3225 19.5717 30.3225 20.2239V20.5063H23.4156L23.4038 20.3884C23.3973 20.3236 23.3885 20.2344 23.3842 20.1903C23.3779 20.1256 29.165 16.6746 29.3022 16.6613C29.3238 16.6591 29.4206 16.8425 29.5173 17.0688ZM17.2936 20.4076C17.2936 20.4853 16.557 20.5063 13.8293 20.5063H10.365L10.4183 19.9164C10.4774 19.2635 10.6911 18.3468 10.9439 17.6611L11.109 17.2132L14.2013 18.7611C15.902 19.6124 17.2936 20.3533 17.2936 20.4076ZM21.1883 19.4706C22.9313 20.3681 22.311 22.9765 20.3546 22.9765C18.1782 22.9765 17.7949 20.0022 19.8832 19.3175C20.1854 19.2184 20.8499 19.2963 21.1883 19.4706ZM17.3211 21.9395C17.3463 22.036 17.3416 22.1375 17.3106 22.1651C17.2031 22.2608 11.3901 25.6247 11.374 25.6006C11.0117 25.0559 10.3866 22.7956 10.3866 22.0304V21.764H17.2753L17.3211 21.9395ZM30.2908 22.3539C30.2317 23.0068 30.0181 23.9235 29.7653 24.6092L29.6001 25.0571L26.5079 23.5092C24.8071 22.6579 23.4156 21.917 23.4156 21.8627C23.4156 21.785 24.1521 21.764 26.8799 21.764H30.3442L30.2908 22.3539ZM25.9276 24.6332C27.6109 25.4763 28.9883 26.1868 28.9883 26.2121C28.9883 26.5428 27.051 28.7147 26.3081 29.2169L25.9434 29.4636L22.4596 23.4791L22.6373 23.2897C22.7351 23.1855 22.8267 23.1002 22.841 23.1002C22.8553 23.1002 24.2443 23.7901 25.9276 24.6332ZM18.2266 23.4446L18.4021 23.6317L16.8666 26.7066C16.022 28.3978 15.3103 29.7815 15.2851 29.7815C14.9551 29.7815 12.7862 27.8415 12.2852 27.0982L12.0394 26.7336L15.0001 25C18.3753 23.0237 18.001 23.2042 18.2266 23.4446ZM23.0982 27.1172C24.0552 28.7646 24.8271 30.1198 24.8136 30.1288C24.2738 30.4905 22.0128 31.1178 21.2486 31.1178H20.9825V24.2122L21.1198 24.1762C21.1953 24.1565 21.28 24.1362 21.3077 24.1312C21.3355 24.1262 22.1412 25.4699 23.0982 27.1172ZM19.7267 27.6701V31.1395L19.1376 31.086C18.4857 31.0269 17.5704 30.8129 16.8857 30.5597L16.4384 30.3943L17.984 27.2975C18.834 25.5942 19.5739 24.2007 19.6281 24.2007C19.7057 24.2007 19.7267 24.9383 19.7267 27.6701ZM30.401 36.227H10.3081V34.9694H30.401V36.227ZM32.4417 37.6705C32.8867 37.9079 33.3836 38.4505 33.3836 38.6991C33.3836 38.7229 27.5205 38.7423 20.3546 38.7423C13.1886 38.7423 7.32559 38.7223 7.32559 38.6979C7.32559 38.3526 8.00647 37.7341 8.58093 37.5576C8.68908 37.5244 14.0402 37.5032 20.4723 37.5105L32.167 37.524L32.4417 37.6705Z" fill="#445664"/>
</svg>
