<svg width="41" height="40" viewBox="0 0 41 40" fill="none" xmlns="http://www.w3.org/2000/svg">
<path d="M15.3429 36.7812C15.1828 36.7812 15.0867 36.75 14.9586 36.6875C14.382 36.3125 11.6594 34.3438 13.9336 30.4375C14.5422 29.375 14.7023 28.5312 14.4781 27.8438C14.2219 27.0625 13.389 26.75 13.389 26.75C13.0047 26.5938 12.8125 26.1562 12.9726 25.7812C13.1008 25.4688 13.357 25.2812 13.6773 25.2812C13.7734 25.2812 13.8695 25.3125 13.9656 25.3438C14.0937 25.3438 15.439 25.9062 15.9836 27.3125C16.4 28.4375 16.1758 29.75 15.3109 31.2188C13.7094 33.9688 15.407 35.1875 15.7594 35.4062C16.1117 35.5938 16.2398 36.0625 16.0476 36.4375C15.8554 36.6875 15.5672 36.7812 15.3429 36.7812ZM20.532 35.125C20.3719 35.125 20.2758 35.0938 20.1476 35.0312C18.9945 34.375 17.3609 32.3438 19.1867 29.1562C19.7312 28.1875 19.8914 27.4062 19.6672 26.8125C19.4429 26.125 18.7062 25.8437 18.7062 25.8437C18.2898 25.6875 18.0976 25.2812 18.2578 24.875C18.3859 24.5625 18.6422 24.375 18.9625 24.375C19.0586 24.375 19.1547 24.4062 19.2508 24.4375C19.5711 24.5625 20.6922 25.0625 21.1406 26.3125C21.525 27.375 21.3328 28.5938 20.532 29.9375C18.9945 32.625 20.8523 33.7188 20.9484 33.75C21.1086 33.8438 21.2367 34 21.3008 34.1875C21.3648 34.375 21.3328 34.5938 21.2367 34.7812C21.0445 35.0312 20.7562 35.125 20.532 35.125ZM9.89763 35.125C9.73748 35.125 9.64138 35.0938 9.51326 35.0312C8.36013 34.375 6.72654 32.3438 8.55232 29.1562C9.09685 28.1875 9.25701 27.4062 9.03279 26.8125C8.80857 26.125 8.07185 25.8437 8.07185 25.8437C7.65544 25.6875 7.46326 25.2812 7.62341 24.875C7.75154 24.5625 8.00779 24.375 8.3281 24.375C8.42419 24.375 8.52029 24.4062 8.61638 24.4375C8.93669 24.5625 10.0578 25.0937 10.5062 26.3125C10.8906 27.375 10.6664 28.5938 9.89763 29.9688C8.36013 32.6562 10.2179 33.75 10.314 33.7812C10.4742 33.875 10.6023 34.0312 10.6664 34.2188C10.7304 34.4062 10.6984 34.625 10.6023 34.8125C10.4422 35.0312 10.1219 35.125 9.89763 35.125ZM29.4047 32.3438C29.1484 32.3438 28.9562 32.25 28.7961 32.0937C28.6359 31.9375 28.5398 31.7188 28.5398 31.5C28.5398 31.1562 28.764 30.8437 29.0844 30.6875H29.1164V29L27.4828 29.9062V29.9375C27.4828 30.1875 27.3867 30.5 27.0664 30.6562C26.9383 30.75 26.7781 30.7812 26.6179 30.7812C26.2976 30.7812 26.0093 30.625 25.8812 30.375C25.7531 30.1562 25.7211 29.9375 25.7851 29.7188C25.8492 29.5 25.9773 29.3125 26.2015 29.2188C26.3297 29.125 26.4898 29.0938 26.6179 29.0938C26.7781 29.0938 26.9383 29.125 27.0664 29.2188L28.5398 28.4062L27.0984 27.5938C26.9062 27.6562 26.7461 27.6875 26.6179 27.6875C26.4578 27.6875 26.3297 27.6562 26.2015 27.5938C25.8172 27.3438 25.657 26.8125 25.8812 26.4375C26.0414 26.1875 26.3297 26.0312 26.65 26.0312C26.8101 26.0312 26.9703 26.0625 27.0984 26.1562C27.3547 26.3125 27.5148 26.5625 27.5148 26.875V26.9062L29.1484 27.8125V26.125H29.1164C28.7961 25.9688 28.5718 25.6562 28.5718 25.3125C28.5718 24.8438 28.9562 24.4688 29.4367 24.4688C29.6929 24.4688 29.9172 24.5625 30.0773 24.7188C30.2375 24.875 30.3336 25.0938 30.3336 25.3125C30.3336 25.5938 30.1734 25.875 29.8851 26.0312H29.789V27.6562L31.1984 26.875V26.8438C31.1984 26.5938 31.2945 26.2812 31.6148 26.125C31.7429 26.0312 31.9031 26 32.0633 26C32.3836 26 32.6719 26.1562 32.8 26.4062C32.9281 26.625 32.9601 26.8438 32.8961 27.0625C32.832 27.2812 32.7039 27.4687 32.4797 27.5625C32.3515 27.6562 32.1914 27.6875 32.0633 27.6875C31.9031 27.6875 31.7429 27.6562 31.6148 27.5625L30.1414 28.375L31.5828 29.1875C31.775 29.125 31.9351 29.0938 32.0633 29.0938C32.2234 29.0938 32.3515 29.125 32.4797 29.1875C32.864 29.4375 33.0242 29.9687 32.8 30.3438C32.6398 30.5938 32.3515 30.75 32.0312 30.75C31.8711 30.75 31.7109 30.7188 31.5828 30.625C31.3265 30.4688 31.1664 30.2187 31.1664 29.9062V29.875L29.789 29.125V30.75H29.8211C30.1093 30.875 30.2695 31.1562 30.2695 31.4687C30.2695 31.9687 29.8851 32.3438 29.4047 32.3438ZM6.08591 22.4688C3.65154 22.4688 1.69763 20.5625 1.69763 18.1875V8C1.69763 5.625 3.65154 3.71875 6.08591 3.71875H34.9781C37.4125 3.71875 39.3664 5.625 39.3664 8V18.1875C39.3664 20.5625 37.4125 22.4688 34.9781 22.4688H6.08591ZM5.63748 5.59375C4.48435 5.59375 3.55544 6.53125 3.55544 7.71875V18.5938C3.55544 19.75 4.48435 20.7188 5.63748 20.7188H35.3945C36.5476 20.7188 37.4765 19.7812 37.4765 18.5938V7.71875C37.4765 6.5625 36.5476 5.59375 35.3945 5.59375H5.63748ZM6.50232 17.7812C6.08591 17.7812 5.73357 17.4375 5.73357 17.0312C5.73357 16.625 6.08591 16.2812 6.50232 16.2812H33.825C34.2414 16.2812 34.5937 16.625 34.5937 17.0312C34.5937 17.4375 34.2414 17.7812 33.825 17.7812H6.50232ZM6.50232 14.625C6.08591 14.625 5.73357 14.2812 5.73357 13.875C5.73357 13.4688 6.08591 13.125 6.50232 13.125H33.825C34.2414 13.125 34.5937 13.4688 34.5937 13.875C34.5937 14.2812 34.2414 14.625 33.825 14.625H6.50232Z" fill="#445664"/>
</svg>
