<svg width="40" height="40" viewBox="0 0 40 40" fill="none" xmlns="http://www.w3.org/2000/svg">
<g clip-path="url(#clip0_5_880)">
<path d="M26.0189 25.7487C25.8464 25.5827 25.9147 25.3581 26.1751 25.2474C26.4355 25.1367 26.7839 25.1823 26.9596 25.345C28.1901 26.5169 27.5977 27.4674 27.028 28.3789C26.5983 29.069 26.1849 29.7298 26.9466 30.3939C27.1322 30.5566 27.0768 30.7812 26.8262 30.8984C26.5755 31.0156 26.2207 30.9831 26.0352 30.8203C24.9056 29.834 25.4297 28.9909 25.9798 28.112C26.4388 27.373 26.9206 26.6048 26.0189 25.7487ZM4.74284 18.1771H28.7174C29.0299 18.1771 29.2839 18.431 29.2839 18.7435V22.7344H37.1387C37.6139 22.7344 38.0469 22.5391 38.3594 22.2266C38.6719 21.9141 38.8672 21.4811 38.8672 21.0059V11.8913C38.8672 11.416 38.6719 10.9831 38.3594 10.6706C38.0469 10.3581 37.6139 10.1628 37.1387 10.1628H2.86458C2.38932 10.1628 1.95638 10.3581 1.64388 10.6706C1.32812 10.9831 1.13281 11.416 1.13281 11.8913V21.0059C1.13281 21.4811 1.32812 21.9141 1.64062 22.2266C1.95312 22.5391 2.38607 22.7344 2.86133 22.7344H4.17318V18.7435C4.17643 18.431 4.43034 18.1771 4.74284 18.1771ZM28.151 19.3099H5.30924V22.5944H28.151V19.3099ZM4.95117 13.4668C4.63867 13.4668 4.38477 13.2129 4.38477 12.9004C4.38477 12.5879 4.63867 12.334 4.95117 12.334H35.4655C35.778 12.334 36.0319 12.5879 36.0319 12.9004C36.0319 13.2129 35.778 13.4668 35.4655 13.4668H4.95117ZM32.0898 19.4401C32.5326 19.4401 32.8906 19.7982 32.8906 20.2409C32.8906 20.6836 32.5326 21.0417 32.0898 21.0417C31.6471 21.0417 31.2891 20.6836 31.2891 20.2409C31.2891 19.7982 31.6504 19.4401 32.0898 19.4401ZM35.4329 19.4401C35.8756 19.4401 36.2337 19.7982 36.2337 20.2409C36.2337 20.6836 35.8756 21.0417 35.4329 21.0417C34.9902 21.0417 34.6322 20.6836 34.6322 20.2409C34.6322 19.7982 34.9902 19.4401 35.4329 19.4401ZM2.86458 9.02669H37.1387C37.9264 9.02669 38.6426 9.34895 39.1602 9.86653C39.6777 10.3841 40 11.1003 40 11.888V21.0059C40 21.7936 39.6777 22.5098 39.1602 23.0273C38.6426 23.5449 37.9264 23.8672 37.1387 23.8672H2.86458C2.07682 23.8672 1.36068 23.5449 0.843099 23.0273C0.322266 22.5098 0 21.7936 0 21.0059V11.8913C0 11.1035 0.322266 10.3874 0.839844 9.86979C1.36068 9.34895 2.07682 9.02669 2.86458 9.02669ZM4.95117 16.11C4.63867 16.11 4.38477 15.8561 4.38477 15.5436C4.38477 15.2311 4.63867 14.9772 4.95117 14.9772H35.4655C35.778 14.9772 36.0319 15.2311 36.0319 15.5436C36.0319 15.8561 35.778 16.11 35.4655 16.11H4.95117ZM6.95638 25.7487C6.78385 25.5827 6.85221 25.3581 7.11263 25.2474C7.37305 25.1367 7.72135 25.1823 7.89713 25.345C9.1276 26.5169 8.53516 27.4674 7.96549 28.3789C7.53581 29.069 7.1224 29.7298 7.88411 30.3939C8.06966 30.5566 8.01432 30.7812 7.76367 30.8984C7.51302 31.0156 7.1582 30.9831 6.97266 30.8203C5.8431 29.834 6.36719 28.9909 6.91732 28.112C7.3763 27.373 7.85482 26.6048 6.95638 25.7487ZM11.722 25.7487C11.5495 25.5827 11.6178 25.3581 11.8783 25.2474C12.1387 25.1367 12.487 25.1823 12.6628 25.345C13.8932 26.5169 13.3008 27.4674 12.7311 28.3789C12.3014 29.069 11.888 29.7298 12.6497 30.3939C12.8353 30.5566 12.7799 30.7812 12.5293 30.8984C12.2786 31.0156 11.9238 30.9831 11.7383 30.8203C10.6087 29.834 11.1328 28.9909 11.6829 28.112C12.1419 27.373 12.6204 26.6048 11.722 25.7487ZM16.4876 25.7487C16.3151 25.5827 16.3835 25.3581 16.6439 25.2474C16.9043 25.1367 17.2526 25.1823 17.4284 25.345C18.6589 26.5169 18.0664 27.4674 17.4967 28.3789C17.0671 29.069 16.6536 29.7298 17.4154 30.3939C17.6009 30.5566 17.5456 30.7812 17.2949 30.8984C17.0443 31.0156 16.6895 30.9831 16.5039 30.8203C15.3743 29.834 15.8984 28.9909 16.4486 28.112C16.9076 27.373 17.3893 26.6048 16.4876 25.7487ZM21.2533 25.7487C21.0807 25.5827 21.1491 25.3581 21.4095 25.2474C21.6699 25.1367 22.0182 25.1823 22.194 25.345C23.4245 26.5169 22.832 27.4674 22.2624 28.3789C21.8327 29.069 21.4193 29.7298 22.181 30.3939C22.3665 30.5566 22.3112 30.7812 22.0605 30.8984C21.8099 31.0156 21.4551 30.9831 21.2695 30.8203C20.14 29.834 20.6673 28.9909 21.2142 28.112C21.6732 27.373 22.1549 26.6048 21.2533 25.7487Z" fill="#445664"/>
</g>
<defs>
<clipPath id="clip0_5_880">
<rect width="40" height="40" fill="white"/>
</clipPath>
</defs>
</svg>
