<svg width="41" height="40" viewBox="0 0 41 40" fill="none" xmlns="http://www.w3.org/2000/svg">
<path d="M32.4083 13.6198C32.0379 13.6198 31.7376 13.3268 31.7376 12.9655C31.7376 12.6042 32.0379 12.3112 32.4083 12.3112H36.252C36.6224 12.3112 36.9227 12.6042 36.9227 12.9655C36.9227 13.3268 36.6224 13.6198 36.252 13.6198H32.4083ZM1.99528 5.12695H39.0047C39.5553 5.12695 40.0524 5.34505 40.4128 5.69661C40.7731 6.04818 40.9967 6.53646 40.9967 7.07031V32.9264C40.9967 33.4635 40.7731 33.9486 40.4128 34.3001C40.0524 34.6517 39.5519 34.8698 39.0047 34.8698H1.99528C1.44474 34.8698 0.947591 34.6517 0.58724 34.3001C0.223551 33.9518 0 33.4635 0 32.9297V7.07357C0 6.53646 0.223551 6.05143 0.583903 5.69987C0.947591 5.34505 1.44474 5.12695 1.99528 5.12695ZM39.0047 6.4388H1.99528C1.81844 6.4388 1.65495 6.51042 1.53817 6.62435C1.41805 6.73828 1.34465 6.89779 1.34465 7.07357V32.9297C1.34465 33.1022 1.41805 33.2617 1.53483 33.3756C1.65161 33.4896 1.8151 33.5612 1.99194 33.5612H39.0047C39.1816 33.5612 39.3451 33.4896 39.4618 33.3756C39.5786 33.2617 39.652 33.1022 39.652 32.9297V7.07357C39.652 6.90104 39.5786 6.74154 39.4618 6.6276C39.3451 6.51042 39.1849 6.4388 39.0047 6.4388ZM15.2415 7.8776C18.6649 7.8776 21.7646 9.23177 24.0101 11.4225C26.2556 13.6133 27.6436 16.6374 27.6436 19.9772C27.6436 22.7539 26.686 25.3092 25.0745 27.3535V27.3861C25.0745 27.6302 24.8876 27.832 24.644 27.8678C24.4405 28.099 24.2303 28.3203 24.0101 28.5319C21.7646 30.7227 18.6649 32.0768 15.2415 32.0768C11.8182 32.0768 8.71851 30.7227 6.47298 28.5319C4.22746 26.3411 2.83944 23.3171 2.83944 19.9772C2.83944 16.6374 4.22746 13.6133 6.47298 11.4225C8.71851 9.23177 11.8182 7.8776 15.2415 7.8776ZM23.2961 12.1159C22.9023 11.7318 22.4786 11.3737 22.0315 11.0482V28.8997C22.4786 28.5742 22.9023 28.2194 23.2961 27.832C23.5663 27.5684 23.8199 27.2917 24.0635 27.0052V13.0013C24.0635 12.9818 24.0635 12.9622 24.0668 12.946C23.8266 12.6595 23.5697 12.3796 23.2961 12.1159ZM21.0339 10.4004C20.3899 10.0293 19.7092 9.72005 18.9919 9.47591V30.472C19.7059 30.2311 20.3832 29.9219 21.0238 29.5508V10.4883C21.0238 10.459 21.0272 10.4297 21.0339 10.4004ZM17.9842 9.1862C17.3269 9.02669 16.6496 8.92578 15.9522 8.88346V31.071C16.6496 31.0286 17.3269 30.9277 17.9842 30.7682V9.1862ZM14.9446 8.86393C14.2506 8.88021 13.5699 8.95833 12.9126 9.0918V30.8561C13.5699 30.9896 14.2506 31.0677 14.9446 31.084V8.86393ZM11.9049 9.3457C11.1943 9.55729 10.5169 9.83398 9.87296 10.1725V29.7819C10.5169 30.1172 11.1976 30.3939 11.9049 30.6087V9.3457ZM8.86198 10.765C8.25806 11.1621 7.69751 11.6146 7.18368 12.1159C7.06356 12.2331 6.94344 12.3535 6.83 12.4772V12.487V27.4707C6.94678 27.5944 7.06356 27.7148 7.18368 27.832C7.69751 28.3333 8.25806 28.7858 8.86198 29.1829V10.765ZM5.82235 13.7207C4.5778 15.5013 3.84709 17.6562 3.84709 19.9772C3.84709 22.2982 4.57446 24.4499 5.82235 26.2337V13.7207ZM25.0711 25.5957C26.0654 23.9453 26.6326 22.0247 26.6326 19.974C26.6326 17.9232 26.0621 16.0026 25.0711 14.3522V25.5957ZM28.0907 10.498C27.7204 10.498 27.4201 10.2051 27.4201 9.84375C27.4201 9.48242 27.7204 9.18945 28.0907 9.18945H36.2487C36.6191 9.18945 36.9194 9.48242 36.9194 9.84375C36.9194 10.2051 36.6191 10.498 36.2487 10.498H28.0907Z" fill="#445664"/>
</svg>
