<svg width="41" height="40" viewBox="0 0 41 40" fill="none" xmlns="http://www.w3.org/2000/svg">
<path fill-rule="evenodd" clip-rule="evenodd" d="M12.508 1.12318C10.6946 1.51649 9.15687 3.01374 8.64024 4.8893L8.50391 5.38438V19.8176V34.2509L8.6375 34.6317C8.90354 35.3902 9.6348 36.1372 10.3654 36.3966L10.7349 36.5278L10.7653 37.6363L10.7958 38.7446L10.9615 39.0609C11.5887 40.2585 13.3092 40.3154 13.9687 39.1603L14.1401 38.86H14.7875H15.4349L15.6064 39.1603C16.2596 40.3044 17.8889 40.2734 18.5744 39.1038L18.785 38.7446L18.8131 37.6593L18.8412 36.5739H20.4999H22.1586L22.1898 37.6593L22.2211 38.7446L22.3865 39.0609C23.0126 40.2585 24.7339 40.3153 25.3934 39.1603L25.5648 38.86H26.2123H26.8597L27.0311 39.1603C27.6844 40.3044 29.3129 40.2734 29.9995 39.1038L30.2103 38.7446L30.2376 37.6363L30.2648 36.5278L30.6344 36.3966C31.3657 36.1369 32.058 35.4311 32.3478 34.6499L32.4959 34.2509V19.8176V5.38438L32.3564 4.8893C31.8203 2.98609 30.2853 1.50118 28.4591 1.11906C27.6883 0.957822 13.2536 0.961478 12.508 1.12318ZM28.6632 2.38348C29.9887 2.89949 30.8591 3.85536 31.2019 5.17134L31.3153 5.60678V19.8568V34.1067L31.1224 34.4939C30.9163 34.9074 30.5292 35.2312 30.0906 35.357C29.7377 35.4583 11.2621 35.4583 10.9092 35.357C10.4706 35.2312 10.0835 34.9074 9.87739 34.4939L9.68446 34.1067V19.8165V5.52627L9.80724 5.11262C10.2565 3.59816 11.4037 2.53413 12.9215 2.22414C13.089 2.18987 16.585 2.16717 20.6903 2.17364L28.1545 2.18545L28.6632 2.38348ZM12.829 3.39959C11.1051 3.94242 10.7508 4.79608 10.7508 8.40706C10.7508 11.2279 10.8106 11.4415 11.5491 11.2562C11.9446 11.157 11.9694 10.98 11.9694 8.2593V5.75705L12.1623 5.36983C12.3684 4.95633 12.7555 4.63255 13.1941 4.50673C13.5455 4.40596 27.4543 4.40596 27.8056 4.50673C28.2443 4.63255 28.6313 4.95633 28.8374 5.36983L29.0304 5.75705V11.8584V17.9597L28.8374 18.347C28.6313 18.7605 28.2443 19.0842 27.8056 19.2101C27.4543 19.3108 13.5455 19.3108 13.1941 19.2101C12.7555 19.0842 12.3684 18.7605 12.1623 18.347L11.9694 17.9597V15.4575C11.9694 12.7368 11.9446 12.5598 11.5491 12.4606C10.8106 12.2752 10.7508 12.4889 10.7508 15.3097C10.7508 18.7592 10.9836 19.4364 12.4107 20.139L12.9183 20.3889H20.4999H28.0815L28.5891 20.139C29.4179 19.731 30.0017 18.9685 30.1717 18.0719C30.2763 17.52 30.2763 6.19683 30.1717 5.64494C30.0017 4.7484 29.4179 3.98584 28.5891 3.57782L28.0816 3.32792L20.6158 3.31322C14.5927 3.30134 13.088 3.31802 12.829 3.39959ZM13.3578 5.62574C12.8707 5.82171 12.892 8.76694 13.3819 8.95491C13.543 9.01676 27.4568 9.01676 27.6179 8.95491C28.1259 8.75993 28.1259 5.81707 27.6179 5.62209C27.471 5.56572 13.498 5.56938 13.3578 5.62574ZM26.7454 7.2885V7.85974H20.4999H14.2544V7.2885V6.71726H20.4999H26.7454V7.2885ZM13.3578 10.1956C12.8707 10.3916 12.892 13.3368 13.3819 13.5248C13.543 13.5867 27.4568 13.5867 27.6179 13.5248C28.1259 13.3298 28.1259 10.387 27.6179 10.192C27.471 10.1356 13.498 10.1393 13.3578 10.1956ZM26.7454 11.8584V12.4296H20.4999H14.2544V11.8584V11.2872H20.4999H26.7454V11.8584ZM13.3578 14.7655C12.8707 14.9615 12.892 17.9067 13.3819 18.0947C13.543 18.1565 27.4568 18.1565 27.6179 18.0947C28.1259 17.8997 28.1259 14.9569 27.6179 14.7619C27.471 14.7055 13.498 14.7092 13.3578 14.7655ZM26.7454 16.4283V16.9995H20.4999H14.2544V16.4283V15.8571H20.4999H26.7454V16.4283ZM13.0357 37.5585V38.5432L12.835 38.701C12.7247 38.7878 12.5751 38.8589 12.5026 38.8589C12.4301 38.8589 12.2805 38.7878 12.1701 38.701L11.9694 38.5432V37.5585V36.5739H12.5026H13.0357V37.5585ZM15.3207 37.1452V37.7164H14.7875H14.2544V37.1452V36.5739H14.7875H15.3207V37.1452ZM17.6056 37.5585V38.5432L17.4049 38.701C17.2946 38.7878 17.145 38.8589 17.0725 38.8589C17 38.8589 16.8504 38.7878 16.74 38.701L16.5393 38.5432V37.5585V36.5739H17.0725H17.6056V37.5585ZM24.4605 37.5585V38.5432L24.2598 38.701C24.1494 38.7878 23.9998 38.8589 23.9273 38.8589C23.8548 38.8589 23.7052 38.7878 23.5948 38.701L23.3942 38.5432V37.5585V36.5739H23.9273H24.4605V37.5585ZM26.7454 37.1452V37.7164H26.2123H25.6791V37.1452V36.5739H26.2123H26.7454V37.1452ZM29.0304 37.5585V38.5432L28.8297 38.701C28.7193 38.7878 28.5697 38.8589 28.4972 38.8589C28.4247 38.8589 28.2751 38.7878 28.1647 38.701L27.964 38.5432V37.5585V36.5739H28.4972H29.0304V37.5585Z" fill="#445664"/>
</svg>
